<?xml version="1.0" encoding="UTF-8" standalone="no"?>
<svg
   xmlnsDc="http://purl.org/dc/elements/1.1/"
   xmlnsCc="http://creativecommons.org/ns#"
   xmlnsRdf="http://www.w3.org/1999/02/22-rdf-syntax-ns#"
   xmlnsSvg="http://www.w3.org/2000/svg"
   xmlns="http://www.w3.org/2000/svg"
   xmlnsXlink="http://www.w3.org/1999/xlink"
   xmlnsSodipodi="http://sodipodi.sourceforge.net/DTD/sodipodi-0.dtd"
   xmlnsInkscape="http://www.inkscape.org/namespaces/inkscape"
   width="210mm"
   height="297mm"
   viewBox="0 0 210 297"
   version="1.1"
   id="svg8"
   inkscapeVersion="1.0.2-2 (e86c870879, 2021-01-15)"
   sodipodiDocname="portfoliologo.svg">
  <defs
     id="defs2">
    <linearGradient
       inkscapeCollect="always"
       xlinkHref="#linearGradient862"
       id="linearGradient872"
       x1="471"
       y1="605"
       x2="246"
       y2="605"
       gradientUnits="userSpaceOnUse"
       gradientTransform="matrix(0.26458333,0,0,0.26458333,-11.071415,16.180931)" />
    <linearGradient
       inkscapeCollect="always"
       id="linearGradient862">
      <stop
         style="stop-color:#592f7a;stop-opacity:1;"
         offset="0"
         id="stop858" />
      <stop
         style="stop-color:#42cef7;stop-opacity:1"
         offset="1"
         id="stop860" />
    </linearGradient>
    <linearGradient
       inkscapeCollect="always"
       xlinkHref="#linearGradient862"
       id="linearGradient864"
       x1="283.5"
       y1="519.84375"
       x2="601.68945"
       y2="519.84375"
       gradientUnits="userSpaceOnUse"
       gradientTransform="matrix(0.26458333,0,0,0.26458333,-11.071415,16.180931)" />
  </defs>
  <sodipodiNamedview
     id="base"
     pagecolor="#ffffff"
     bordercolor="#666666"
     borderopacity="1.0"
     inkscapePageopacity="0.0"
     inkscapePageshadow="2"
     inkscapeZoom="1"
     inkscapeCx="400"
     inkscapeCy="560"
     inkscapeDocumentUnits="px"
     inkscapeCurrentLayer="layer1"
     inkscapeDocumentRotation="0"
     showgrid="false"
     showborder="false"
     inkscapeWindowWidth="1366"
     inkscapeWindowHeight="705"
     inkscapeWindowX="-8"
     inkscapeWindowY="-8"
     inkscapeWindowMaximized="1" />
  <metadata
     id="metadata5">
    <rdfRDF>
      <ccWork
         rdfAbout="">
        <dcFormat>image/svg+xml</dcFormat>
        <dcType
           rdfResource="http://purl.org/dc/dcmitype/StillImage" />
        <dcTitle></dcTitle>
      </ccWork>
    </rdfRDF>
  </metadata>
  <g
     inkscapeLabel="Layer 1"
     inkscapeGroupmode="layer"
     id="layer1">
    <path
       id="path833"
       style="fill:url(#linearGradient872);fill-opacity:1;stroke:#000000;stroke-width:0;stroke-miterlimit:4;stroke-dasharray:none;stroke-dashoffset:0;stroke-opacity:1"
       d="m 93.703584,136.56635 a 39.6875,39.6875 0 0 0 -39.6875,39.6875 39.6875,39.6875 0 0 0 39.6875,39.6875 39.6875,39.6875 0 0 0 39.687496,-39.6875 39.6875,39.6875 0 0 0 -39.687496,-39.6875 z m 0,19.84375 a 19.843751,19.843751 0 0 1 19.843746,19.84375 19.843751,19.843751 0 0 1 -19.843746,19.84375 19.843751,19.843751 0 0 1 -19.84375,-19.84375 19.843751,19.843751 0 0 1 19.84375,-19.84375 z" />
    <path
       id="path1562"
       style="fill:url(#linearGradient864);fill-opacity:1;stroke:#000000;stroke-width:0;stroke-miterlimit:4;stroke-dasharray:none;stroke-dashoffset:0;stroke-opacity:1"
       d="m 133.39108,91.504498 c -10.99344,0 -19.84375,8.850312 -19.84375,19.843752 v 7.18974 h -14.041 c -4.39737,0 -7.9375,3.54013 -7.9375,7.9375 0,4.3974 3.54013,7.9375 7.9375,7.9375 h 14.041 v 41.84086 a 19.84375,19.84375 0 0 1 -19.843746,19.84375 19.84375,19.84375 0 0 1 -19.84375,-19.84375 19.84375,19.84375 0 0 1 19.693371,-19.84324 29.765625,29.765625 0 0 0 -29.615246,29.76511 29.765625,29.765625 0 0 0 29.765625,29.76563 29.765625,29.765625 0 0 0 0.236161,-0.001 39.6875,39.6875 0 0 0 39.451335,-39.68644 h 0.18397 l 0.13591,-41.84086 h 6.47712 c 4.39739,0 7.9375,-3.5401 7.9375,-7.9375 0,-4.39737 -3.54011,-7.9375 -7.9375,-7.9375 h -6.42596 l 0.0879,-27.022123 c -0.15306,-0.0035 -0.30497,-0.01138 -0.45889,-0.01138 z" />
  </g>
</svg>
